<?xml version="1.0" ?><svg viewBox="0 0 256 256" width="100" height="100" xmlns="http://www.w3.org/2000/svg"><path d="m233 30.87c-3.17-.63-206.32-.52-210.51 0-5.36.67-7.69 5.48-8.18 9.2-.4 3.09.4 82.93.59 120.93h225.86c.26-40 .62-119-.29-122-1.33-4.22-4.08-7.45-7.47-8.13z" fill="#03A9F4" /><path d="m240.76 169h-225.88a8 8 0 0 1 -8-8c-.06-12.35-.19-29.13-.31-46.25-.45-59.42-.49-73.57-.21-75.75 1.14-8.78 7.07-15.1 15.12-16.11 3.48-.44 82.5-.49 106.63-.5 103.38 0 105.44.39 106.44.59 6.2 1.24 11.27 6.33 13.56 13.63.57 1.82 1.44 4.58.66 124.4a8 8 0 0 1 -8.01 7.99zm-217.92-16h210c .38-62.46.32-105.65-.17-112.12a5.7 5.7 0 0 0 -1.26-2.09c-15.14-.48-197.4-.46-208 0-.66.19-1 1.57-1.12 2.13-.2 4.31.09 42.74.32 73.71.06 13.73.16 27.2.23 38.37z" fill="#03A9F4"/><path d="m175.3 219.81c-.77-.59-22.51-17.14-23.17-17.84s-8.51-13.63-8.7-22.87c-.29-14.38-38-16.05-38.54.18-.28 8.36-7.12 20.73-8 21.36s-21.66 18.36-22.19 19.17c-1 1-.57 10.57-.11 11s100 .94 100.83.26.67-11.07-.12-11.26z" fill="#03A9F4"/><path d="m145.57 239.43c-6.31 0-13.35 0-20.72 0-12.6 0-25.18-.13-34.51-.23-18.94-.2-18.94-.2-21.41-2.7s-2.74-5.11-2.82-10.87c-.08-5.46.37-8.91 2.93-11.47l.06.06c4.19-4.22 17.85-15.69 21.9-19.08 1.67-2.72 5.7-11.27 5.86-16.12.39-11.65 11.24-19.45 26.94-19.31 16 .1 27.37 8 27.59 19.24.11 5.37 4.68 14.41 6.67 17.59 1.62 1.28 6.54 5.1 20.79 16l1.07.82a8.68 8.68 0 0 1 3.45 5.46 41.25 41.25 0 0 1  .54 7.76c0 4.45-.33 8.06-3.33 10.64-2.51 2.15-2.51 2.15-21.19 2.24-3.97-.03-8.65-.03-13.82-.03zm27.28-12.01.25.08zm-89.85-4.28c18.63.29 65.22.43 83.81.25-19.45-14.84-19.83-15.25-20.45-15.91-1.44-1.54-10.62-16.33-10.86-28.19-.71-1.68-8.3-4.65-16.37-3.17-2.94.54-6.12 1.85-6.18 3.45-.29 8.91-7 24.26-11.13 27.46-1.62 1.21-13.57 11.41-18.88 16.07zm9.26-28.93a7.64 7.64 0 0 0 -.69.57z" fill="#03A9F4"/><path d="m15 178.71c0 3.76 1.83 10.14 8.18 12.26 5.4 1.81 206.1-.14 209.83-.91a9.85 9.85 0 0 0 7.49-9c .11-1.21.87-21 .29-22.14-.3-.57-59.58.25-117.24.29-54.87 0-108.26-.7-108.64-.28-.82.92.09 19.07.09 19.78z" fill="#03A9F4"/><path d="m69.15 199.73c-45 0-47.07-.68-48.54-1.17-9.38-3.14-13.61-12.17-13.61-19.76 0-.2 0-.64 0-1.25-.79-19.61-.51-21.12 2-23.92s5.1-2.72 8.5-2.76h7.31c6.18 0 15 .07 25.52.13 19.62.12 46.49.3 73.26.27 24.79 0 50.11-.18 70.46-.32 13.57-.09 25.29-.16 33.57-.18h9.79c4.43.06 8.25.11 10.52 4.46 1 2 1.32 3.08 1 14.94-.12 5-.35 10.65-.43 11.61a17.92 17.92 0 0 1 -13.85 16.1c-4.21.87-101.7 1.56-105.85 1.58-25.53.2-44.9.27-59.65.27zm-43.92-16.54c5.3.44 35.2.77 104.05.29 51.68-.36 96.08-1 102.24-1.32a2.08 2.08 0 0 0 1-1.77c.09-1.24.34-8.18.44-13.63-8.41 0-23.34.07-38.87.17-20.37.13-45.71.3-70.55.32-26.82 0-53.72-.15-73.37-.27-11.07-.07-21.17-.13-27.57-.14 0 2.37.15 5.62.32 10.07 0 1 .06 1.67.06 1.8s.02 3.29 2.25 4.48z" fill="#03A9F4"/><path d="m233 30.87c-3.17-.63-206.32-.52-210.51 0-5.36.67-7.69 5-8.18 8.7-.4 3.09.4 82.43.59 120.43h225.86c.26-40 .62-118.55-.29-121.45-1.33-4.27-4.08-7-7.47-7.68z" fill="white"/><path d="m175.3 219.81c-.77-.59-22.51-17.14-23.17-17.84s-8.51-13.63-8.7-22.87c-.29-14.38-38-16.05-38.54.18-.28 8.36-7.12 20.73-8 21.36s-21.66 18.36-22.19 19.17c-1 1-.57 10.57-.11 11s100 .94 100.83.26.67-11.07-.12-11.26z" fill="#fff"/><path d="m15 178.71c0 3.76 1.83 10.14 8.18 12.26 5.4 1.81 206.1-.14 209.83-.91a9.85 9.85 0 0 0 7.49-9c .11-1.21.87-21 .29-22.14-.3-.57-59.58.25-117.24.29-54.87 0-108.26-.7-108.64-.28-.82.92.09 19.07.09 19.78z" fill="#fff"/><path d="m90.58 76.43c-5.11 5.75-5.44 44.83 1.15 50.58 3.26 2.84 49.93 2.63 52.23 0s2.47-15.27 5.11-12.64 10.88 9.69 13.35 11.49 5.4 2.54 6.43-3.28c1-5.58.66-42.53.16-46.47-.45-3.59-4.78-3.28-7.58-.66s-11 9.69-13 11.49-1.81-9-4.61-11.33-48.96-4-53.24.82z" fill="#fff" stroke="#03A9F4" stroke-width="10"/></svg>